# xmcd
# 
# Track frame offsets:
#     150
#     29007
#     40647
#     51042
#     63635
#     71160
#     105097
#     112757
#     141962
#     154447
#     173392
#     209172
#     227482
#     266152
#     284907
# 
# Disc length: 4041
# 
# Revision: 3
# Processed by: cddbd v1.5.2PL0 Copyright (c) Steve Scherf et al.
# Submitted via: fre:ac v1.1beta1pre3
# 
DISCID=df0fc70f
DTITLE=Walter Olbertz - Haydn - Die Klaviersonaten CD7
DYEAR=1978
DGENRE=Classical
TTITLE0=Sonata in B flat, Hob.XVI-41 1.Allegro
TTITLE1=Sonata in B flat, Hob.XVI-41 2.Allegro di molto
TTITLE2=Sonata in G, Hob.XVI-G1 1.Allegro
TTITLE3=Sonata in G, Hob.XVI-G1 2.Menuetto
TTITLE4=Sonata in G, Hob.XVI-G1 3.Finale, Presto
TTITLE5=Sonata in D, Hob.XVI-42 1.Andante con espressione
TTITLE6=Sonata in D, Hob.XVI-42 2.Vivace assai
TTITLE7=Sonata in A flat, Hob.XVI-43 1.Moderato
TTITLE8=Sonata in A flat, Hob.XVI-43 2.Menuetto
TTITLE9=Sonata in A flat, Hob.XVI-43 3.Rondo, Presto
TTITLE10=Sonata in G minor, Hob.XVI-44 1.Moderato
TTITLE11=Sonata in G minor, Hob.XVI-44 2.Allegretto
TTITLE12=Sonata in E flat, Hob.XVI-45 1.Moderato
TTITLE13=Sonata in E flat, Hob.XVI-45 2.Andante
TTITLE14=Sonata in E flat, Hob.XVI-45 3.Finale - Allegro di molto
EXTD=YEAR: 1978
EXTT0=
EXTT1=
EXTT2=
EXTT3=
EXTT4=
EXTT5=
EXTT6=
EXTT7=
EXTT8=
EXTT9=
EXTT10=
EXTT11=
EXTT12=
EXTT13=
EXTT14=
PLAYORDER=
